<svg xmlns="http://www.w3.org/2000/svg" viewBox="0 0 100 100" width="128" height="128">
  <defs>
    <linearGradient id="grad1" x1="0%" y1="0%" x2="100%" y2="100%">
      <stop offset="0%" stop-color="#9370db" />
      <stop offset="100%" stop-color="#583594" />
    </linearGradient>
    <linearGradient id="grad2" x1="0%" y1="100%" x2="100%" y2="0%">
      <stop offset="0%" stop-color="#7b68ee" />
      <stop offset="100%" stop-color="#482580" />
    </linearGradient>
  </defs>
  <!-- Diamond polygon background -->
  <polygon points="50,5 92,28 78,88 22,88 8,28" fill="url(#grad1)" />
  <polygon points="50,5 65,35 50,75 35,35" fill="url(#grad2)" opacity="0.85" />
  <polygon points="50,75 78,88 50,96 22,88" fill="#361763" />
  <polygon points="92,28 65,35 78,88" fill="#4d2b86" />
  <polygon points="8,28 35,35 22,88" fill="#6a42a8" />
  <!-- Lightning bolt overlay for speed -->
  <polygon points="53,24 37,50 49,50 45,74 65,44 51,44" fill="#ffffff" opacity="0.95" />
</svg>
